<?xml version="1.0" standalone="no"?>
<!DOCTYPE svg PUBLIC "-//W3C//DTD SVG 20010904//EN"
 "http://www.w3.org/TR/2001/REC-SVG-20010904/DTD/svg10.dtd">
<svg version="1.0" xmlns="http://www.w3.org/2000/svg"
 width="500.000000pt" height="500.000000pt" viewBox="0 0 500.000000 500.000000"
 preserveAspectRatio="xMidYMid meet">

<g transform="translate(0.000000,500.000000) scale(0.100000,-0.100000)"
fill="#000000" stroke="none">
<path d="M1630 3667 l-155 -93 -3 -187 -2 -186 157 -94 c87 -51 219 -129 293
-172 74 -43 150 -86 168 -97 l32 -20 0 376 0 375 -160 96 c-88 52 -163 95
-167 95 -5 0 -78 -42 -163 -93z"/>
<path d="M3042 3664 l-162 -96 0 -374 0 -375 23 12 c37 20 543 316 587 344
l40 25 0 188 0 187 -148 87 c-81 48 -154 90 -162 93 -9 3 -82 -34 -178 -91z"/>
<path d="M2420 2584 c0 -3 18 -37 41 -76 l41 -70 25 43 c13 24 34 59 45 77
l20 32 -86 0 c-47 0 -86 -3 -86 -6z"/>
<path d="M2902 2198 l3 -43 63 -3 62 -3 0 46 0 45 -66 0 -65 0 3 -42z"/>
<path d="M1280 1984 l0 -236 141 4 c140 3 141 3 165 31 20 24 24 39 24 95 0
45 -5 75 -16 90 -14 20 -14 24 0 44 19 26 22 125 5 161 -18 39 -50 47 -189 47
l-130 0 0 -236z m198 99 l3 -53 -35 0 -36 0 0 56 0 55 33 -3 c31 -3 32 -4 35
-55z m0 -195 c-3 -51 -4 -53 -33 -53 -29 0 -30 2 -33 53 l-3 52 36 0 36 0 -3
-52z"/>
<path d="M2500 1985 l0 -235 65 0 65 0 0 95 0 95 45 0 45 0 0 -95 0 -95 65 0
65 0 0 235 0 235 -65 0 -65 0 0 -95 0 -95 -45 0 -45 0 0 95 0 95 -65 0 -65 0
0 -235z"/>
<path d="M1703 2106 c-43 -20 -56 -71 -51 -203 5 -138 13 -147 139 -152 54 -2
101 2 118 9 31 12 51 47 51 85 0 24 -3 25 -60 25 -47 0 -60 -3 -60 -15 0 -10
-11 -15 -35 -15 -32 0 -35 2 -35 30 l0 30 95 0 95 0 0 79 c0 69 -3 83 -24 107
-21 26 -30 28 -112 31 -63 2 -99 -1 -121 -11z m137 -106 c0 -28 -3 -30 -35
-30 -30 0 -35 3 -35 23 0 31 7 37 42 37 24 0 28 -4 28 -30z"/>
<path d="M2052 2105 c-45 -20 -54 -51 -50 -187 3 -107 5 -120 26 -140 21 -21
32 -23 127 -23 119 0 141 11 152 78 l6 37 -62 0 c-48 0 -61 -3 -61 -15 0 -10
-11 -15 -35 -15 -32 0 -35 2 -35 30 l0 30 95 0 95 0 0 69 c0 90 -11 118 -55
136 -44 19 -160 19 -203 0z m138 -105 c0 -28 -3 -30 -35 -30 -32 0 -35 2 -35
30 0 28 3 30 35 30 32 0 35 -2 35 -30z"/>
<path d="M2910 1935 l0 -185 60 0 60 0 0 185 0 185 -60 0 -60 0 0 -185z"/>
<path d="M3071 2098 c0 -13 19 -95 42 -183 l42 -160 76 -3 75 -3 43 168 c23
92 44 176 47 186 5 16 -1 18 -58 15 l-63 -3 -20 -110 c-12 -60 -23 -103 -26
-95 -4 8 -14 59 -24 113 l-19 97 -58 0 c-54 0 -58 -2 -57 -22z"/>
<path d="M3472 2105 c-45 -20 -54 -51 -50 -187 3 -107 5 -120 26 -140 21 -21
32 -23 127 -23 119 0 141 11 152 78 l6 37 -62 0 c-48 0 -61 -3 -61 -15 0 -10
-11 -15 -35 -15 -32 0 -35 2 -35 30 l0 30 95 0 95 0 0 69 c0 90 -11 118 -55
136 -44 19 -160 19 -203 0z m138 -105 c0 -28 -3 -30 -35 -30 -32 0 -35 2 -35
30 0 28 3 30 35 30 32 0 35 -2 35 -30z"/>
</g>
</svg>
